<?xml version="1.0" encoding="utf-8"?>
<!-- Generator: Adobe Illustrator 16.0.0, SVG Export Plug-In . SVG Version: 6.00 Build 0)  -->
<!DOCTYPE svg PUBLIC "-//W3C//DTD SVG 1.1//EN" "http://www.w3.org/Graphics/SVG/1.1/DTD/svg11.dtd">
<svg version="1.1" xmlns="http://www.w3.org/2000/svg" xmlns:xlink="http://www.w3.org/1999/xlink" x="0px" y="0px" width="1000px"
	 height="1000px" viewBox="0 0 1000 1000" enable-background="new 0 0 1000 1000" xml:space="preserve">
<g id="door">
	<polygon stroke="#FFFFFF" stroke-width="8" stroke-miterlimit="10" points="863.737,910.379 559.994,784.797 559.994,278 
		863.737,227 	"/>
	<polygon fill="#FFFFFF" stroke="#000000" stroke-miterlimit="10" points="571.938,771.967 571.938,305.055 839,306 
		833.849,773.396 	"/>
	<path stroke="#FFFFFF" stroke-width="6" stroke-miterlimit="10" d="M843.408,583.22c0,6.336-5.137,11.471-11.472,11.471h-238.97
		c-6.334,0-11.47-5.135-11.47-11.471v-33.885c0-6.336,5.136-11.471,11.47-11.471h238.97c6.335,0,11.472,5.135,11.472,11.471V583.22z
		"/>
	<path fill="#FFFFFF" stroke="#FFFFFF" stroke-width="6" stroke-miterlimit="10" d="M835.629,572.193
		c0,3.116-4.512,5.643-10.075,5.643H615.638c-5.565,0-10.075-2.526-10.075-5.643v-16.666c0-3.116,4.51-5.642,10.075-5.642h209.916
		c5.563,0,10.075,2.525,10.075,5.642V572.193z"/>
	<path d="M7,559.061"/>
	<g>
		<g>
			<path d="M606.208,155.544c9.22-2.612,14.003,4.634,14.003,19.688v2.957l-9.02,2.393v-3.874c0-6.68-1.722-8.746-4.728-7.921
				c-2.989,0.82-4.695,3.809-4.695,10.444c0,6.769,1.875,11.326,8.045,18.132c7.959,8.849,10.486,16.021,10.486,26.775
				c0,15.056-4.872,24.717-14.178,26.741c-9.187,1.999-13.905-5.412-13.905-20.178v-5.669l8.786-2.088v6.632
				c0,6.631,1.873,8.595,4.862,7.916c3.003-0.68,4.896-3.513,4.896-10.189c0-6.811-1.893-11.43-8.055-18.31
				c-7.797-8.772-10.238-15.799-10.238-26.347C592.468,167.877,597.105,158.125,606.208,155.544z"/>
			<path d="M635.556,188.382l13.583-3.47v13.707l-13.583,3.346v27.843l17.132-3.896v13.74l-26.869,5.865v-94.448l26.869-7.595v13.74
				l-17.132,4.685V188.382z"/>
			<path d="M688.838,195.035v13.085c0,15.762-5.341,25.93-15.535,28.147c-10.055,2.187-15.217-5.515-15.217-20.959v-50.193
				c0-15.444,5.162-25.732,15.217-28.583c10.194-2.888,15.535,4.606,15.535,20.367v9.57l-9.889,2.579v-10.486
				c0-6.991-2.074-9.078-5.363-8.176c-3.275,0.897-5.325,4.098-5.325,11.039v52.479c0,6.94,2.05,8.974,5.325,8.23
				c3.289-0.745,5.363-3.732,5.363-10.722v-13.982L688.838,195.035z"/>
			<path d="M717.785,225.444c-0.597-2.45-0.993-3.94-0.993-12.107v-15.761c0-9.314-2.178-12.222-7.109-11.016l-3.726,0.91v40.556
				l-10.688,2.332v-98.918l16.186-4.574c11.314-3.198,16.229,3.062,16.229,18.645v7.936c0,10.39-2.311,17.609-7.21,22.147v0.287
				c5.499,1.943,7.309,8.999,7.309,19.534v15.583c0,4.908,0.101,8.494,1.21,12.003L717.785,225.444z M705.957,142.649v30.593
				l4.218-1.07c4.043-1.026,6.52-4.234,6.52-12.256v-9.886c0-7.166-1.686-9.856-5.535-8.804L705.957,142.649z"/>
			<path d="M746.304,160.086l15.709-4.013v14.746l-15.709,3.869v29.931l19.815-4.507v14.784l-31.065,6.78V120.194l31.065-8.778
				v14.783l-19.815,5.417V160.086z"/>
			<path d="M769.925,110.339l36.896-10.427v15.158l-12.668,3.464v90.244l-11.936,2.604v-89.585l-12.292,3.361V110.339z"/>
			<path d="M828.861,92.454c12.285-3.481,18.672,4.648,18.672,22.044v3.417l-12.034,3.19v-4.473c0-7.709-2.297-10.01-6.297-8.913
				c-3.98,1.09-6.248,4.62-6.248,12.273c0,7.805,2.493,12.975,10.709,20.547c10.611,9.861,13.985,18.04,13.985,30.465
				c0,17.397-6.502,28.753-18.903,31.45c-12.216,2.656-18.482-5.702-18.482-22.713v-6.53l11.673-2.775v7.649
				c0,7.648,2.49,9.835,6.468,8.934c3.999-0.907,6.522-4.253,6.522-11.96c0-7.862-2.523-13.111-10.726-20.784
				c-10.363-9.769-13.604-17.756-13.604-29.909C810.597,107.352,816.752,95.886,828.861,92.454z"/>
		</g>
	</g>
	<g>
		<g>
			<path stroke="#FFFFFF" stroke-miterlimit="10" d="M601.442,150.659c9.219-2.613,14.003,4.634,14.003,19.688v2.957l-9.02,2.393
				v-3.874c0-6.679-1.723-8.745-4.728-7.921c-2.99,0.82-4.696,3.809-4.696,10.443c0,6.769,1.876,11.326,8.045,18.132
				c7.959,8.849,10.487,16.021,10.487,26.775c0,15.055-4.873,24.717-14.178,26.741c-9.187,1.999-13.905-5.412-13.905-20.178v-5.669
				l8.785-2.088v6.633c0,6.631,1.873,8.594,4.863,7.916c3.003-0.68,4.895-3.513,4.895-10.189c0-6.811-1.892-11.43-8.054-18.309
				c-7.797-8.772-10.238-15.8-10.238-26.348C587.702,162.991,592.339,153.239,601.442,150.659z"/>
			<path stroke="#FFFFFF" stroke-miterlimit="10" d="M630.79,183.496l13.582-3.47v13.707l-13.582,3.346v27.843l17.131-3.896v13.739
				l-26.868,5.865v-94.449l26.868-7.595v13.74l-17.131,4.685V183.496z"/>
			<path stroke="#FFFFFF" stroke-miterlimit="10" d="M684.071,190.148v13.085c0,15.762-5.341,25.93-15.534,28.147
				c-10.056,2.187-15.217-5.515-15.217-20.959v-50.193c0-15.444,5.161-25.732,15.217-28.583
				c10.193-2.888,15.534,4.606,15.534,20.367v9.57l-9.888,2.579v-10.486c0-6.991-2.075-9.078-5.363-8.176
				c-3.275,0.897-5.325,4.098-5.325,11.039v52.479c0,6.94,2.05,8.974,5.325,8.23c3.288-0.745,5.363-3.732,5.363-10.722v-13.981
				L684.071,190.148z"/>
			<path stroke="#FFFFFF" stroke-miterlimit="10" d="M713.019,220.559c-0.596-2.45-0.992-3.941-0.992-12.107V192.69
				c0-9.314-2.178-12.222-7.109-11.016l-3.726,0.91v40.555l-10.688,2.332v-98.919l16.186-4.574
				c11.313-3.198,16.228,3.062,16.228,18.645v7.936c0,10.39-2.31,17.609-7.21,22.147v0.287c5.5,1.942,7.31,8.999,7.31,19.533v15.583
				c0,4.908,0.101,8.493,1.21,12.003L713.019,220.559z M701.191,137.763v30.593l4.218-1.069c4.043-1.026,6.52-4.234,6.52-12.257
				v-9.886c0-7.165-1.686-9.856-5.536-8.804L701.191,137.763z"/>
			<path stroke="#FFFFFF" stroke-miterlimit="10" d="M741.537,155.201l15.709-4.013v14.746l-15.709,3.869v29.931l19.815-4.507
				v14.784l-31.064,6.78V115.308l31.064-8.778v14.782l-19.815,5.418V155.201z"/>
			<path stroke="#FFFFFF" stroke-miterlimit="10" d="M765.158,105.453l36.896-10.427v15.158l-12.667,3.464v90.244l-11.936,2.604
				V116.91l-12.293,3.361V105.453z"/>
			<path stroke="#FFFFFF" stroke-miterlimit="10" d="M824.095,87.568c12.285-3.481,18.673,4.648,18.673,22.044v3.417l-12.035,3.191
				v-4.473c0-7.709-2.297-10.01-6.296-8.913c-3.981,1.09-6.248,4.62-6.248,12.273c0,7.805,2.492,12.975,10.708,20.547
				c10.612,9.861,13.985,18.04,13.985,30.465c0,17.397-6.502,28.752-18.902,31.45c-12.217,2.657-18.482-5.701-18.482-22.713v-6.53
				l11.672-2.775v7.649c0,7.648,2.491,9.835,6.469,8.934c3.999-0.906,6.521-4.253,6.521-11.96c0-7.862-2.522-13.111-10.726-20.783
				c-10.363-9.77-13.603-17.756-13.603-29.909C805.831,102.465,811.986,91,824.095,87.568z"/>
		</g>
	</g>
</g>
<g id="Layer_1">
	<circle cx="367.848" cy="411.634" r="124.519"/>
	<path stroke="#FFFFFF" stroke-width="3" stroke-miterlimit="10" d="M457.697,848.695c4.284,1.563,12.592,0.025,16.17,11.353
		l-30.346,0.406c-9.916,0-9.916-3.646-7.284-7.754l33.738-62.859l-38.428-122.277l14.445-27.392c0.165-3.621,3.711-6.4,7.917-6.206
		c0,0,73.757,80.339,73.589,83.959l-11.375,84.256L457.697,848.695z"/>
	<path d="M447.992,594.773c-17.159,15.917-33.871,10.882-37.515,10.928L371,606.422c-3.645,0.045,2.38-61.132-11.696-72.375
		c-14.076-11.242-3.298-11.167,0.347-11.213l49.766-0.633c3.645-0.046-0.226,4.526-0.173,8.692
		C409.244,530.894,469.667,574.667,447.992,594.773z"/>
	<path d="M369.563,594.69c0,0,6.437,180.643,64.694,143.503c56.317-35.903,163.535,89.474,57.012-110.967
		c-9.393-17.672-23.838-33.927-27.318-38.198c51.336-5.754,151.656-38.577,151.695-38.527c0.869,0.281,4.564-36.213-4.146-34.516
		c-3.729,0.728-6.496,8.443-6.027,18.462c0.068,1.471,0.119,2.694,0.175,3.742c-19.066,3.248-75.62,15.197-75.62,15.197
		s-101.208,3.702-102.86,3.558l-132.918-9.837c-2.256-0.198-32.31-22.281-53.271-32.634c-0.625-2.413-2.869-5.914-6.007-9.706
		c-4.771-5.767-9.777-10.009-11.717-8.404c-1.822,1.508-1.406,6.563,2.633,11.956c-3.251-1.21-7.171-1.719-13.722-1.719
		c-14.973,0-27.111,4.6-27.111,10.273s12.138,10.274,27.111,10.274c11.562,0,19.513-0.054,24.773-0.336l52.363,56.434
		C289.037,586.285,365.14,594.237,369.563,594.69"/>
	<path stroke="#FFFFFF" stroke-width="8" stroke-miterlimit="10" d="M451.792,764.439c-7.368-2.541-7.897-4.11-7.146-6.253
		l18.918-53.997c0.751-2.143,3.264-3.213,5.612-2.391l189.89,61.597c0.938,0.327,7.967-12.083,13.267-11.887
		c6.75,0.25,13.048,17.271-8.202,28.15C664.132,779.659,460.905,767.581,451.792,764.439z"/>
	<path d="M422.92,527.597c55.592-13.931,110.45-57.14,97.84-121.983c-11.558-59.436-93.908-59.979-162.184-25.907
		c-68.275,34.072-126.41,36.191-106.417,77.972C272.15,499.46,348.504,546.244,422.92,527.597z"/>
	<path d="M471.02,722.133c0,27.222-8.255,45.989-36.399,45.989c-28.144,0-50.959-22.067-50.959-49.289s22.815-49.289,50.959-49.289
		C462.764,669.544,471.02,694.912,471.02,722.133z"/>
	<path fill="#FFFFFF" d="M465.748,355.253c32.899,50.949,25.271,101.025-26.841,127.835c-26.522,13.645-76.663,17.912-102.391,0.82
		c-18.635-12.378-36.304-29.049-31.378-65.125c6.001-43.944-1.079-77.253,37.465-97.662
		C385.521,298.397,431.983,302.968,465.748,355.253z"/>
	<path fill="#FFFFFF" d="M504.959,401.18c9.968,43.651-13.358,69.164-63.459,90.872c-58.297,25.26-121.051,6.631-136.566-68.954
		c-0.715-3.485,55.414,9.099,94.347-27.932C441.054,355.433,498.402,372.465,504.959,401.18z"/>
	<g>
		<path d="M474.027,398.471c7.278,14.896-13.565,32.559-35.382,43.219c-21.818,10.659-45.405,7.226-52.683-7.669
			c-7.278-14.896,4.509-35.614,26.327-46.274c14.141-6.91,29.402,1.176,40.107,5.393
			C458.206,395.429,471.467,393.231,474.027,398.471z"/>
		<path d="M437.74,426.408c4.95,10.13,18.77,13.55,30.866,7.64c18.409-8.995,17.893-18.915,12.943-29.045
			c-4.95-10.131-18.771-13.551-30.868-7.641S432.791,416.277,437.74,426.408z"/>
		<path stroke="#FFFFFF" stroke-width="7" stroke-miterlimit="10" d="M424.309,412.348c9.921,2.779,18.481,0.196,16.939,5.485
			c-2.892,9.915-26.413,29.258-38.43,35.13c-18.429,9.004-38.687,5.419-45.247-8.007c-6.559-13.426,3.062-31.61,21.491-40.615
			C397.489,395.338,409.922,408.315,424.309,412.348z"/>
		<path d="M468.099,417.574c15.598,2.104,19.373-4.058,12.769,8.595c-5.856,11.22-31.809,29.094-64.23,37.756
			c-26.849,7.173-53.199-7.364-56.601-25.436C356.633,420.418,451.512,415.337,468.099,417.574z"/>
		<path fill="none" stroke="#000000" stroke-width="3" stroke-miterlimit="10" d="M427.905,419.254
			c-0.004,0,26.845,1.187,15.469-9.911"/>
	</g>
	
		<ellipse transform="matrix(0.8985 -0.439 0.439 0.8985 -151.2045 166.9904)" fill="#FFFFFF" cx="285.508" cy="410.469" rx="9.508" ry="16.306"/>
</g>
</svg>
